Coordinates
version=1
nRows=14
nColumns=28
inDegrees=yes

Units are S.I. units (second, meters, Newtons, ...)
Angles are in degrees.

endheader
time	pelvis_tilt	pelvis_list	pelvis_rotation	pelvis_tx	pelvis_ty	pelvis_tz	hip_flexion_r	hip_adduction_r	hip_rotation_r	knee_angle_r	ankle_angle_r	subtalar_angle_r	mtp_angle_r	hip_flexion_l	hip_adduction_l	hip_rotation_l	knee_angle_l	socket_flexion	socket_adduction	socket_rotation	socket_tx	socket_ty	socket_tz	foot_flex	lumbar_extension	lumbar_bending	lumbar_rotation
      0.26666667	     -2.77328382	      4.93125634	     -0.81694400	     -0.40261619	      0.97575442	      0.23559777	     19.72099717	     -7.49752674	      0.94918756	    -66.70406397	    -14.27340714	    -15.42029491	     16.34114861	     18.05278372	      8.90290988	     -5.85108023	    -35.18611819	     -7.75682787	     -3.72638850	      8.10762393	      0.00000000	     -0.00042482	      0.00000000	      5.61652279	     -6.44172166	     -6.55608489	     -3.96920491
      0.27083333	     -2.70603890	      4.83386117	     -0.71124256	     -0.39705610	      0.97676078	      0.23540865	     20.43561758	     -7.48686720	      0.86070035	    -66.76458528	    -14.10906460	    -15.50584970	     16.31320095	     17.47839109	      8.83287534	     -5.82172074	    -35.07727971	     -7.90800278	     -3.79484848	      8.14566701	      0.00000000	     -0.00027079	      0.00000000	      5.64730483	     -6.55366955	     -6.42041011	     -4.05639952
      0.27500000	     -2.62390135	      4.69697566	     -0.56760712	     -0.39097064	      0.97801686	      0.23540798	     20.97530460	     -7.36696399	      0.76537764	    -66.65960417	    -12.68192705	    -16.29731119	     16.08094165	     16.65052439	      8.70618729	     -5.71693202	    -34.40699651	     -7.72965049	     -3.79791650	      8.50146525	      0.00000000	     -0.00057195	      0.00000000	      5.64978673	     -6.62573855	     -6.24852264	     -4.65618222
      0.27916667	     -2.56209349	      4.61124515	     -0.45286007	     -0.38554113	      0.97901753	      0.23525493	     21.67874329	     -7.35703942	      0.67488243	    -66.62461483	    -12.53639430	    -16.37562305	     16.05244280	     16.09575026	      8.63837259	     -5.69742435	    -34.30150691	     -7.89809604	     -3.86457744	      8.51815723	      0.00000000	     -0.00032555	      0.00000000	      5.67889321	     -6.74697578	     -6.13934221	     -4.72731888
      0.28333333	     -2.51432446	      4.42125910	     -0.29624982	     -0.37942723	      0.98020171	      0.23518860	     22.19574708	     -7.18446693	      0.56195575	    -66.37016022	    -11.19494802	    -17.12977451	     15.82846626	     15.27278583	      8.45780610	     -5.55010280	    -33.57861151	     -7.71505837	     -3.85918097	      8.94474012	      0.00000000	     -0.00078370	      0.00000000	      5.66533665	     -6.77381825	     -5.89658900	     -5.32486831
      0.28750000	     -2.46986069	      4.37706805	     -0.12209075	     -0.37422795	      0.98128725	      0.23516052	     22.85758674	     -7.17144233	      0.51327573	    -66.15625450	    -11.12750903	    -17.16386971	     15.81503654	     14.82007931	      8.40775259	     -5.57246135	    -33.56805439	     -7.81249613	     -3.90423192	      8.92207601	      0.00000000	     -0.00016260	      0.00000000	      5.67981223	     -6.92362314	     -5.87825914	     -5.35449555
      0.29166667	     -2.32014596	      4.16081492	      0.00402011	     -0.36792933	      0.98250416	      0.23489126	     23.23558707	     -7.04891885	      0.28089762	    -65.84706747	     -9.49962571	    -18.10277900	     15.43871975	     13.80353534	      8.22945328	     -5.41504015	    -32.71047646	     -7.66760536	     -3.95825091	      9.27056502	      0.00000000	     -0.00080997	      0.00000000	      5.63712930	     -7.03165214	     -5.55885878	     -6.01632016
      0.29583333	     -2.28341022	      4.12475340	      0.18267414	     -0.36286666	      0.98349220	      0.23489234	     23.89457213	     -7.03558368	      0.24610019	    -65.56811120	     -9.44778379	    -18.12709588	     15.42466316	     13.37166537	      8.18202941	     -5.43380226	    -32.70119090	     -7.75886385	     -3.99385632	      9.25696918	      0.00000000	     -0.00023280	      0.00000000	      5.65147019	     -7.19178660	     -5.54551783	     -6.04151884
      0.30000000	     -2.28475809	      3.97011496	      0.22093009	     -0.35699169	      0.98429107	      0.23454560	     24.54861377	     -6.98687006	      0.11387113	    -65.26611480	     -9.10165674	    -18.31703798	     15.35619244	     12.70356693	      8.07778125	     -5.34948660	    -32.34371689	     -8.03435312	     -4.13228163	      9.38339296	      0.00000000	     -0.00037971	      0.00000000	      5.69147292	     -7.15922756	     -5.29367849	     -6.22671144
      0.30416667	     -2.01620511	      3.72322195	      0.47846024	     -0.35084144	      0.98584844	      0.23440469	     24.62506754	     -6.78163115	     -0.16394216	    -64.64235423	     -7.19548678	    -19.41559030	     14.68514757	     11.55004777	      7.83251565	     -5.14835000	    -31.25978422	     -7.54198850	     -4.07040159	      9.72880024	      0.00000000	     -0.00090189	      0.00000000	      5.58393787	     -7.45910538	     -4.98533296	     -7.05208383
      0.30833333	     -1.99708814	      3.69387408	      0.64751174	     -0.34592441	      0.98672040	      0.23439547	     25.27638531	     -6.77297357	     -0.18904314	    -64.25150356	     -7.15637971	    -19.43086030	     14.67003778	     11.15033997	      7.79104501	     -5.16300226	    -31.25274167	     -7.62691870	     -4.10466003	      9.72242866	      0.00000000	     -0.00033985	      0.00000000	      5.59737605	     -7.63062563	     -4.98674229	     -7.07060653
      0.31250000	     -1.52623161	      3.39420613	      0.68594603	     -0.33923233	      0.98852942	      0.23418361	     25.07267891	     -6.50767694	     -0.41665821	    -63.48210824	     -5.84487294	    -19.52666720	      5.91694430	      9.50301297	      7.52449238	     -4.92393136	    -29.64908522	     -7.12035201	     -4.04752672	     10.04062926	      0.00000000	     -0.00130944	      0.00000000	      5.56604124	     -8.05175919	     -4.56160571	     -7.44572234
      0.31666667	     -1.57217719	      3.29700927	      0.82590272	     -0.33377523	      0.98927639	      0.23405669	     25.66889125	     -6.43249989	     -0.47663504	    -62.90961959	     -5.63141789	    -19.64167038	      5.89803212	      9.03027766	      7.43301142	     -4.88732756	    -29.47148474	     -7.29916828	     -4.14831465	     10.12828046	      0.00000000	     -0.00098644	      0.00000000	      5.57853207	     -8.05490053	     -4.43886490	     -7.58756272
      0.32083333	     -1.67870281	      2.95076266	      1.08174456	     -0.32785094	      0.99001842	      0.23383908	     26.14008572	     -6.11302744	     -0.73755537	    -62.12610071	     -4.78737877	    -20.11113362	      5.81333655	      8.46669819	      7.05668217	     -4.77997761	    -28.92030361	     -7.20178821	     -4.19102109	     10.53208330	      0.00000000	     -0.00129776	      0.00000000	      5.51330294	     -7.91824328	     -4.01516717	     -8.07935231
